<?xml version="1.0" encoding="utf-8"?>
<!-- Generator: Adobe Illustrator 23.0.3, SVG Export Plug-In . SVG Version: 6.00 Build 0)  -->
<svg version="1.1" id="logosvg.com" xmlns="http://www.w3.org/2000/svg" xmlns:xlink="http://www.w3.org/1999/xlink" x="0px"
	 y="0px" viewBox="0 0 400 300" style="enable-background:new 0 0 400 300;" xml:space="preserve">
<path id="logo" d="M149.4,140.1c0-8.1-6.6-14.7-14.7-14.7h-24.5v48h10.9v-18.6h8.7l10.6,18.6h12.1l-11.5-20.1
	C146.2,150.9,149.4,145.7,149.4,140.1z M132.5,145.5H121v0v-10.8h11.7l0,0c3.6,0.2,5.9,2.3,5.9,5.4
	C138.5,143.2,136.1,145.4,132.5,145.5z M91,125.5h11.2v28.9c0,12.6-7.8,20.2-20.9,20.2v0h0c-13.1,0-20.9-7.5-20.9-20.2v-28.9h11.2
	v28.2c0,6.8,3.6,10.7,9.7,10.7h0c6.2,0,9.8-3.9,9.8-10.7V125.5z M214.9,163.8h25.9v9.6h-37v-48h35.8v9.2h-24.6v9.6h21.6v9.4h-21.6
	V163.8z M45.6,146.8L45.6,146.8c3.4-2.1,5.5-5.8,5.5-9.8c0-6.3-5.1-11.5-11.5-11.6H15.2v48h26.5c7.5,0,13.5-6.1,13.5-13.6
	C55.2,154.5,52.1,149,45.6,146.8z M26.2,134.4h9c2.7,0,5,2.3,5,5c0,2.8-2.2,5-5,5h-9V134.4z M38.5,164.4H26.2v-11.2h12.2
	c4,0,5.9,3.2,5.9,5.5C44.3,161.6,42.3,164.4,38.5,164.4z M287.4,140.1c0-8.1-6.6-14.7-14.7-14.7h-24.5v48h10.9v-18.6h8.7l10.6,18.6
	h12.1l-11.5-20.1C284.1,150.9,287.4,145.7,287.4,140.1z M270.4,145.5h-11.5v0v-10.8h11.7l0,0c3.6,0.2,5.9,2.3,5.9,5.4
	C276.5,143.2,274,145.4,270.4,145.5z M188.1,146.8L188.1,146.8c3.4-2.1,5.5-5.8,5.5-9.8c0-6.3-5.1-11.5-11.5-11.6l-24.4,0v48l26.5,0
	c7.5,0,13.5-6.1,13.5-13.6C197.7,154.5,194.5,149,188.1,146.8z M168.7,134.4h9c2.7,0,5,2.3,5,5c0,2.8-2.2,5-5,5h-9V134.4z
	 M180.9,164.4h-12.2v-11.2h12.2c4,0,5.9,3.2,5.9,5.5C186.8,161.6,184.8,164.4,180.9,164.4z M384.8,125.4l-19.1,28.4v19.5h-11.8
	v-19.5l-19-28.4h14l11,16.5l11-16.5H384.8z M334.8,140.1c0-8.1-6.6-14.7-14.7-14.7h-24.5v48h10.9v-18.6h8.7l10.6,18.6H338
	l-11.5-20.1C331.6,150.9,334.8,145.7,334.8,140.1z M317.8,145.5h-11.5v0v-10.8h11.7l0,0c3.6,0.2,5.9,2.3,5.9,5.4
	C323.9,143.2,321.5,145.4,317.8,145.5z"/>
</svg>
